<svg width="642" height="916" viewBox="0 0 642 916" fill="none" xmlns="http://www.w3.org/2000/svg">
<path d="M238.206 359.545H35.4111L136.319 102.867L238.206 359.545ZM61.8627 340.931H211.755L136.319 149.892L61.8627 340.931Z" fill="#F2994A"/>
<path d="M605.589 359.545H402.794L503.702 102.867L605.589 359.545ZM429.245 340.931H579.138L503.702 149.892L429.245 340.931Z" fill="#F2994A"/>
<path d="M499.783 99.9281C499.783 99.9281 478.23 92.0906 466.474 87.1922C424.347 69.5578 372.424 48.9844 320.5 48.9844C268.577 48.9844 216.653 70.5375 174.527 88.1719C162.771 93.0703 141.217 100.908 141.217 100.908L108.888 125.4C108.888 125.4 135.339 142.055 148.075 137.156C158.852 133.238 169.628 128.339 182.364 123.441C222.531 106.786 272.496 86.2125 320.5 86.2125C368.505 86.2125 418.469 106.786 458.636 123.441C470.392 128.339 482.149 133.238 492.925 137.156C506.641 142.055 532.113 125.4 532.113 125.4L499.783 99.9281Z" fill="#4F4F4F"/>
<path d="M26.5938 340.932C26.5938 401.672 75.5781 450.657 136.319 450.657C197.059 450.657 246.044 401.672 246.044 340.932H26.5938Z" fill="#333333"/>
<path d="M393.977 340.932C393.977 401.672 442.961 450.657 503.702 450.657C564.442 450.657 614.406 401.672 614.406 340.932H393.977Z" fill="#333333"/>
<path d="M301.886 120.502H339.114V524.133H301.886V120.502Z" fill="#F2994A"/>
<path d="M291.109 182.222H350.87V524.133H291.109V182.222Z" fill="#F2994A"/>
<path d="M278.373 359.545H362.626V552.543H278.373V359.545Z" fill="#545B60"/>
<path d="M136.319 166.547C156.879 166.547 173.547 149.879 173.547 129.319C173.547 108.758 156.879 92.0908 136.319 92.0908C115.758 92.0908 99.0908 108.758 99.0908 129.319C99.0908 149.879 115.758 166.547 136.319 166.547Z" fill="#DBB471"/>
<path d="M504.681 166.547C525.242 166.547 541.909 149.879 541.909 129.319C541.909 108.758 525.242 92.0908 504.681 92.0908C484.121 92.0908 467.453 108.758 467.453 129.319C467.453 149.879 484.121 166.547 504.681 166.547Z" fill="#545B60"/>
<path d="M136.319 166.547C156.879 166.547 173.547 149.879 173.547 129.319C173.547 108.758 156.879 92.0908 136.319 92.0908C115.758 92.0908 99.0908 108.758 99.0908 129.319C99.0908 149.879 115.758 166.547 136.319 166.547Z" fill="#545B60"/>
<path d="M136.319 147.933C146.599 147.933 154.933 139.599 154.933 129.319C154.933 119.039 146.599 110.705 136.319 110.705C126.039 110.705 117.705 119.039 117.705 129.319C117.705 139.599 126.039 147.933 136.319 147.933Z" fill="#F2994A"/>
<path d="M504.681 147.933C514.962 147.933 523.296 139.599 523.296 129.319C523.296 119.039 514.962 110.705 504.681 110.705C494.401 110.705 486.067 119.039 486.067 129.319C486.067 139.599 494.401 147.933 504.681 147.933Z" fill="#F2994A"/>
<path d="M320.5 129.319C350.8 129.319 375.363 104.756 375.363 74.4562C375.363 44.1565 350.8 19.5938 320.5 19.5938C290.2 19.5938 265.638 44.1565 265.638 74.4562C265.638 104.756 290.2 129.319 320.5 129.319Z" fill="#333333"/>
<path d="M320.5 441.839C239.186 441.839 173.547 482.986 173.547 533.929H467.453C467.453 482.986 401.814 441.839 320.5 441.839Z" fill="#333333"/>
<path d="M154.933 533.93H486.067V571.158H154.933V533.93Z" fill="#545B60"/>
<path d="M118.685 570.178H522.316V607.406H118.685V570.178Z" fill="#6B767C"/>
<path d="M10.541 697.1H31.115V769.236H75.692V786H10.541V697.1ZM159.179 766.95H117.904L110.03 786H88.9476L128.572 697.1H148.892L188.643 786H167.053L159.179 766.95ZM152.702 751.329L138.605 717.293L124.508 751.329H152.702ZM340.095 697.1L311.012 786H288.914L269.356 725.802L249.163 786H227.192L197.982 697.1H219.318L239.384 759.584L260.339 697.1H279.389L299.709 760.092L320.41 697.1H340.095ZM405.588 754.504V786H385.014V754.25L350.597 697.1H372.441L396.19 736.597L419.939 697.1H440.132L405.588 754.504ZM529.406 769.49V786H460.572V697.1H527.755V713.61H481.019V732.914H522.294V748.916H481.019V769.49H529.406ZM615.119 786L597.974 761.235H596.958H579.051V786H558.477V697.1H596.958C604.832 697.1 611.647 698.412 617.405 701.037C623.247 703.662 627.734 707.387 630.867 712.213C633.999 717.039 635.566 722.754 635.566 729.358C635.566 735.962 633.957 741.677 630.74 746.503C627.607 751.244 623.12 754.885 617.278 757.425L637.217 786H615.119ZM614.738 729.358C614.738 724.363 613.129 720.553 609.912 717.928C606.694 715.219 601.995 713.864 595.815 713.864H579.051V744.852H595.815C601.995 744.852 606.694 743.497 609.912 740.788C613.129 738.079 614.738 734.269 614.738 729.358Z" fill="#333333"/>
<path d="M147.52 887.28V896H105.52V840H146.4V848.72H115.92V863.28H142.96V871.84H115.92V887.28H147.52ZM162.431 869.6H184.431V877.92H162.431V869.6ZM230.883 896.8C225.176 896.8 220.03 895.573 215.443 893.12C210.856 890.613 207.256 887.173 204.643 882.8C202.03 878.373 200.723 873.44 200.723 868C200.723 862.56 202.03 857.653 204.643 853.28C207.256 848.853 210.856 845.413 215.443 842.96C220.03 840.453 225.176 839.2 230.883 839.2C236.59 839.2 241.736 840.453 246.323 842.96C250.91 845.413 254.51 848.827 257.123 853.2C259.736 857.573 261.043 862.507 261.043 868C261.043 873.493 259.736 878.427 257.123 882.8C254.51 887.173 250.91 890.613 246.323 893.12C241.736 895.573 236.59 896.8 230.883 896.8ZM230.883 887.68C234.616 887.68 237.976 886.853 240.963 885.2C243.95 883.493 246.296 881.147 248.003 878.16C249.71 875.12 250.563 871.733 250.563 868C250.563 864.267 249.71 860.907 248.003 857.92C246.296 854.88 243.95 852.533 240.963 850.88C237.976 849.173 234.616 848.32 230.883 848.32C227.15 848.32 223.79 849.173 220.803 850.88C217.816 852.533 215.47 854.88 213.763 857.92C212.056 860.907 211.203 864.267 211.203 868C211.203 871.733 212.056 875.12 213.763 878.16C215.47 881.147 217.816 883.493 220.803 885.2C223.79 886.853 227.15 887.68 230.883 887.68ZM290.467 848.72V865.76H317.507V874.56H290.467V896H280.067V840H320.947V848.72H290.467ZM349.404 848.72V865.76H376.444V874.56H349.404V896H339.004V840H379.884V848.72H349.404ZM397.942 840H408.342V896H397.942V840ZM457.409 896.8C451.755 896.8 446.635 895.573 442.049 893.12C437.515 890.613 433.942 887.173 431.329 882.8C428.769 878.427 427.489 873.493 427.489 868C427.489 862.507 428.795 857.573 431.409 853.2C434.022 848.827 437.595 845.413 442.129 842.96C446.715 840.453 451.835 839.2 457.489 839.2C462.075 839.2 466.262 840 470.049 841.6C473.835 843.2 477.035 845.52 479.649 848.56L472.929 854.88C468.875 850.507 463.889 848.32 457.969 848.32C454.129 848.32 450.689 849.173 447.649 850.88C444.609 852.533 442.235 854.853 440.529 857.84C438.822 860.827 437.969 864.213 437.969 868C437.969 871.787 438.822 875.173 440.529 878.16C442.235 881.147 444.609 883.493 447.649 885.2C450.689 886.853 454.129 887.68 457.969 887.68C463.889 887.68 468.875 885.467 472.929 881.04L479.649 887.44C477.035 890.48 473.809 892.8 469.969 894.4C466.182 896 461.995 896.8 457.409 896.8ZM539.614 887.28V896H497.614V840H538.494V848.72H508.014V863.28H535.054V871.84H508.014V887.28H539.614Z" fill="#4F4F4F"/>
</svg>
